#!OML:ASF H:\MichaelJackson\Top Level 1\Subject 1\Session 1\male.ASF
:FULLY-SPECIFIED
:DEGREES
186
root 5.11119 16.7545 -16.6842 -7.35191 14.2483 -7.44848
lowerback 9.23461 -1.75518 -1.86099
upperback 1.18433 -2.29377 5.26628
thorax -3.65348 -1.08279 6.86413
lowerneck -6.50536 -2.91363 -1.11951
upperneck -1.76865 -3.79609 0.176391
head 0.550903 -1.88804 0.147769
rclavicle -7.0817e-015 3.18055e-014
rhumerus -44.8178 4.58404 -62.8703
rradius 53.4887
rwrist 2.50481
rhand -32.9685 -22.92
rfingers 7.12502
rthumb -6.1838 -52.8097
lclavicle -7.0817e-015 3.18055e-014
lhumerus -43.7117 -3.95476 84.2749
lradius 50.3987
lwrist 14.2662
lhand 5.54594 7.04161
lfingers 7.12502
lthumb 30.8906 34.4639
rfemur -50.4801 3.5995 -10.257
rtibia 100.625
rfoot 33.7773 0.608061
rtoes 43.7538
lfemur -17.8135 -8.95483 -10.2165
ltibia 38.914
lfoot -16.7288 -7.14917
ltoes 9.6555
187
root 5.13142 16.7595 -16.7 -8.09001 14.6956 -7.61286
lowerback 10.1566 -2.03836 -1.70011
upperback 1.49241 -2.64851 5.36672
thorax -3.7998 -1.26249 6.9607
lowerneck -6.49287 -2.78904 -1.01073
upperneck -1.94079 -3.63825 0.0742651
head 0.490035 -1.81048 0.104507
rclavicle 8.27441e-015 -1.03368e-014
rhumerus -44.7717 4.06087 -61.701
rradius 53.48
rwrist 3.92094
rhand -34.315 -25.1968
rfingers 7.12502
rthumb -7.48365 -55.0444
lclavicle 8.27441e-015 -1.03368e-014
lhumerus -42.4842 -4.36164 84.1336
lradius 50.0624
lwrist 14.3618
lhand 6.06789 7.13691
lfingers 7.12502
lthumb 31.388 34.4637
rfemur -51.539 3.88492 -11.6143
rtibia 97.8574
rfoot 30.9971 -4.00127
rtoes 48.635
lfemur -17.1105 -8.70378 -10.3398
ltibia 38.6726
lfoot -16.7101 -7.74567
ltoes 9.48992
188
root 5.1539 16.7637 -16.7184 -8.76499 14.9906 -7.71174
lowerback 11.1042 -2.28305 -1.59872
upperback 1.76864 -2.95365 5.45944
thorax -3.99528 -1.41432 7.08821
lowerneck -6.48526 -2.64208 -0.88356
upperneck -2.07462 -3.45201 -0.0233979
head 0.442083 -1.71891 0.0597817
rclavicle -3.91233e-014 -3.45885e-014
rhumerus -44.7404 3.59922 -60.5704
rradius 53.4891
rwrist 5.63227
rhand -35.347 -27.6027
rfingers 7.12502
rthumb -8.47965 -57.4125
lclavicle -3.91233e-014 -3.45885e-014
lhumerus -41.333 -4.64878 84.0269
lradius 49.8069
lwrist 14.5468
lhand 6.60966 7.31049
lfingers 7.12502
lthumb 31.9041 34.5356
rfemur -52.312 3.87189 -12.7077
rtibia 94.0105
rfoot 27.383 -7.54832
rtoes 52.3958
lfemur -16.4251 -8.24445 -10.4877
ltibia 38.4236
lfoot -16.6917 -8.45895
ltoes 9.62837
189
root 5.1785 16.7658 -16.738 -9.37081 15.0961 -7.7373
lowerback 12.0542 -2.47146 -1.55767
upperback 2.02059 -3.18819 5.53937
thorax -4.22136 -1.52854 7.23591
lowerneck -6.47134 -2.47864 -0.734255
upperneck -2.18438 -3.24553 -0.117545
head 0.400776 -1.61743 0.0127667
rclavicle -2.06488e-014 -1.03368e-014
rhumerus -44.7277 3.16544 -59.4836
rradius 53.5554
rwrist 7.44358
rhand -35.9967 -29.9693
rfingers 7.12502
rthumb -9.10658 -59.7527
lclavicle -2.06488e-014 -1.03368e-014
lhumerus -40.2699 -4.89118 83.973
lradius 49.6574
lwrist 14.8181
lhand 7.17229 7.52846
lfingers 7.12502
lthumb 32.4397 34.6452
rfemur -52.8252 3.58983 -13.5114
rtibia 89.1667
rfoot 23.3747 -9.45436
rtoes 54.3343
lfemur -15.762 -7.56287 -10.6512
ltibia 38.2012
lfoot -16.6835 -9.27092
ltoes 10.0723
190
root 5.20497 16.7638 -16.757 -9.89924 14.9825 -7.68028
lowerback 12.9805 -2.59341 -1.56908
upperback 2.25543 -3.34078 5.59667
thorax -4.45853 -1.60043 7.38239
lowerneck -6.44716 -2.2996 -0.562393
upperneck -2.28163 -3.01993 -0.206953
head 0.362019 -1.50657 -0.036146
rclavicle 3.72721e-016 -1.03368e-014
rhumerus -44.7379 2.74839 -58.47
rradius 53.7328
rwrist 9.10794
rhand -36.2353 -32.2154
rfingers 7.12502
rthumb -9.33687 -61.9887
lclavicle 3.72721e-016 -1.03368e-014
lhumerus -39.3014 -5.14925 83.9723
lradius 49.6316
lwrist 15.1753
lhand 7.73607 7.80091
lfingers 7.12502
lthumb 32.976 34.8062
rfemur -53.146 3.0379 -13.9983
rtibia 83.4896
rfoot 19.45 -9.68969
rtoes 54.2476
lfemur -15.138 -6.65618 -10.828
ltibia 38.0606
lfoot -16.7142 -10.1282
ltoes 10.7591
191
root 5.23215 16.7551 -16.7729 -10.353 14.6295 -7.54771
lowerback 13.863 -2.64318 -1.62235
upperback 2.48331 -3.40505 5.63028
thorax -4.68704 -1.62789 7.51432
lowerneck -6.4204 -2.10703 -0.378385
upperneck -2.37268 -2.77711 -0.291059
head 0.325414 -1.38719 -0.0852326
rclavicle 1.2424e-014 -1.59028e-014
rhumerus -44.7729 2.34206 -57.5565
rradius 54.0787
rwrist 10.3498
rhand -36.1244 -34.2246
rfingers 7.12502
rthumb -9.22988 -64.0025
lclavicle 1.2424e-014 -1.59028e-014
lhumerus -38.4177 -5.46585 84.0197
lradius 49.7249
lwrist 15.6106
lhand 8.31988 8.08532
lfingers 7.12502
lthumb 33.5311 34.9719
rfemur -53.3709 2.16791 -14.0859
rtibia 77.2142
rfoot 15.9274 -8.51619
rtoes 51.754
lfemur -14.5703 -5.532 -10.9994
ltibia 38.0589
lfoot -16.8142 -10.974
ltoes 11.5743
192
root 5.2588 16.7377 -16.7832 -10.7373 14.0276 -7.3466
lowerback 14.6784 -2.61643 -1.71197
upperback 2.71494 -3.3768 5.64008
thorax -4.88433 -1.61011 7.62208
lowerneck -6.38575 -1.90684 -0.19785
upperneck -2.47272 -2.5239 -0.363527
head 0.285739 -1.26252 -0.130043
rclavicle 3.00165e-014 -3.10104e-014
rhumerus -44.8353 1.94704 -56.77
rradius 54.6218
rwrist 10.9883
rhand -35.7484 -35.9225
rfingers 7.12502
rthumb -8.86699 -65.7163
lclavicle 3.00165e-014 -3.10104e-014
lhumerus -37.626 -5.86435 84.1045
lradius 49.9538
lwrist 16.1007
lhand 8.90717 8.35982
lfingers 7.12502
lthumb 34.0891 35.1238
rfemur -53.6288 0.9246 -13.6681
rtibia 70.6541
rfoot 12.7248 -6.32919
rtoes 46.2606
lfemur -14.0645 -4.20478 -11.1507
ltibia 38.2339
lfoot -17.016 -11.7483
ltoes 12.36
193
root 5.28376 16.7121 -16.7859 -11.0686 13.1865 -7.08481
lowerback 15.4158 -2.51407 -1.84285
upperback 2.95972 -3.25989 5.62528
thorax -5.03466 -1.54998 7.704
lowerneck -6.33985 -1.70137 -0.0282501
upperneck -2.59414 -2.26286 -0.42357
head 0.238679 -1.13376 -0.169112
rclavicle -1.13307e-014 -8.18993e-014
rhumerus -44.9271 1.56066 -56.1324
rradius 55.3832
rwrist 10.8949
rhand -35.1934 -37.2869
rfingers 7.12502
rthumb -8.33147 -67.1026
lclavicle -1.13307e-014 -8.18993e-014
lhumerus -36.8997 -6.365 84.212
lradius 50.2797
lwrist 16.6333
lhand 9.48108 8.60495
lfingers 7.12502
lthumb 34.634 35.2457
rfemur -54.0573 -0.79293 -12.5731
rtibia 64.1767
rfoot 9.81977 -3.53896
rtoes 36.3904
lfemur -13.6013 -2.71817 -11.2744
ltibia 38.5819
lfoot -17.3316 -12.3934
ltoes 12.9959
194
root 5.30648 16.6802 -16.7807 -11.3564 12.1249 -6.76737
lowerback 16.0642 -2.34273 -2.02461
upperback 3.22424 -3.06606 5.58688
thorax -5.12359 -1.45419 7.76564
lowerneck -6.28041 -1.48871 0.12059
upperneck -2.74505 -1.99081 -0.470748
head 0.181421 -0.999253 -0.200649
rclavicle 4.67144e-015 -3.18055e-015
rhumerus -45.0268 1.17882 -55.6537
rradius 56.3561
rwrist 10.0343
rhand -34.5375 -38.3095
rfingers 7.12502
rthumb -7.69843 -68.1493
lclavicle 4.67144e-015 -3.18055e-015
lhumerus -36.2635 -6.94451 84.3194
lradius 50.7366
lwrist 17.185
lhand 10.0909 8.78344
lfingers 7.12502
lthumb 35.2125 35.2896
rfemur -54.8395 -3.12976 -10.5513
rtibia 58.2054
rfoot 6.93666 -0.294838
rtoes 20.6157
lfemur -13.1548 -1.13618 -11.3738
ltibia 39.0562
lfoot -17.7366 -12.853
ltoes 13.4022
